# xmcd CD database file
#
# Track frame offsets:
#	150
#	5555
#	27907
#	53990
#	98795
#	109197
#	154672
#	171005
#	177840
#	221372
#	262762
#
# Disc length: 3901 seconds
#
# Revision: 0
# Processed by: cddbd v1.4PL0 Copyright (c) Steve Scherf et al.
# Submitted via: CDex 1.51
#
DISCID=840f3b0b
DTITLE=AT Ensemble - Quant je suis mis au retour
DYEAR=1995
DGENRE=Jazz
TTITLE0=Quant je suis mis au retour...
TTITLE1=Tarator /for Milko Manchevsky/
TTITLE2=Keresztutak - Crossroads
TTITLE3=Tableau
TTITLE4=Hetedik tónus - Seventh Tone
TTITLE5=Újhold - New Moon
TTITLE6=Spielmanslied
TTITLE7=Mariam Matrem Virginem
TTITLE8=le is út - Get Thee Gone!
TTITLE9=Esõcsináló - Rainmaker
TTITLE10=Vic
EXTD=YEAR: 1995
EXTT0=
EXTT1=
EXTT2=
EXTT3=
EXTT4=
EXTT5=
EXTT6=
EXTT7=
EXTT8=
EXTT9=
EXTT10=
PLAYORDER=
